<svg width="24" height="24" viewBox="0 0 24 24" fill="none" xmlns="http://www.w3.org/2000/svg">
<path d="M24 12C24 18.6274 18.6274 24 12 24C5.37258 24 0 18.6274 0 12C0 5.37258 5.37258 0 12 0C18.6274 0 24 5.37258 24 12Z" fill="white"/>
<path d="M12 19C12.9461 19 13.7135 18.2726 13.7135 17.375H10.2865C10.2865 18.2726 11.0539 19 12 19ZM17.7694 15.1988C17.2519 14.6717 16.2836 13.8787 16.2836 11.2812C16.2836 9.3084 14.8243 7.7291 12.8566 7.34164V6.8125C12.8566 6.36385 12.473 6 12 6C11.527 6 11.1434 6.36385 11.1434 6.8125V7.34164C9.17572 7.7291 7.71644 9.3084 7.71644 11.2812C7.71644 13.8787 6.74814 14.6717 6.23064 15.1988C6.06993 15.3625 5.99868 15.5583 6.00002 15.75C6.00296 16.1664 6.3477 16.5625 6.85984 16.5625H17.1402C17.6523 16.5625 17.9973 16.1664 18 15.75C18.0013 15.5583 17.9301 15.3623 17.7694 15.1988Z" fill="#E3B261"/>
</svg>
