<svg width="24" height="24" viewBox="0 0 24 24" fill="none" xmlns="http://www.w3.org/2000/svg">
<path d="M15.4844 8.11037L17.8333 10.4011C17.9323 10.4976 17.9323 10.655 17.8333 10.7515L12.1458 16.2979L9.72917 16.5595C9.40625 16.595 9.13281 16.3284 9.16927 16.0135L9.4375 13.6568L15.125 8.11037C15.224 8.01387 15.3854 8.01387 15.4844 8.11037ZM19.7031 7.52881L18.4323 6.28951C18.0365 5.9035 17.3932 5.9035 16.9948 6.28951L16.0729 7.18851C15.974 7.28502 15.974 7.44247 16.0729 7.53897L18.4219 9.82965C18.5208 9.92616 18.6823 9.92616 18.7812 9.82965L19.7031 8.93065C20.099 8.5421 20.099 7.91483 19.7031 7.52881ZM15 14.7894V17.3747H6.66667V9.2481H12.651C12.7344 9.2481 12.8125 9.21508 12.8724 9.15921L13.9141 8.14339C14.112 7.95038 13.9714 7.62278 13.6927 7.62278H6.25C5.5599 7.62278 5 8.16878 5 8.84177V17.781C5 18.454 5.5599 19 6.25 19H15.4167C16.1068 19 16.6667 18.454 16.6667 17.781V13.7736C16.6667 13.5019 16.3307 13.3673 16.1328 13.5577L15.0911 14.5735C15.0339 14.632 15 14.7081 15 14.7894Z" fill="#111827"/>
</svg>
