<svg width="52" height="52" viewBox="0 0 52 52" fill="none" xmlns="http://www.w3.org/2000/svg">
<circle cx="26" cy="26" r="26" fill="#D9D9D9" fill-opacity="0.2"/>
<path d="M27.685 13.8391C27.685 12.8851 26.9117 12.1118 25.9577 12.1118L25.1651 12.1118C24.2111 12.1118 23.4378 12.8851 23.4378 13.8391L23.4378 21.7104C23.4378 22.6644 22.6644 23.4378 21.7104 23.4378L13.8391 23.4378C12.8851 23.4378 12.1118 24.2111 12.1118 25.1651L12.1118 25.9577C12.1118 26.9117 12.8851 27.685 13.8391 27.685L21.7104 27.685C22.6644 27.685 23.4378 28.4584 23.4378 29.4124L23.4378 37.2837C23.4378 38.2377 24.2111 39.011 25.1651 39.011H25.9577C26.9117 39.011 27.685 38.2377 27.685 37.2837V29.4124C27.685 28.4584 28.4584 27.685 29.4124 27.685L37.2837 27.685C38.2377 27.685 39.011 26.9117 39.011 25.9577L39.011 25.1651C39.011 24.2111 38.2377 23.4378 37.2837 23.4378H29.4124C28.4584 23.4378 27.685 22.6644 27.685 21.7104L27.685 13.8391Z" fill="#E3B261"/>
</svg>
