<svg width="24" height="24" viewBox="0 0 24 24" fill="none" xmlns="http://www.w3.org/2000/svg">
<path d="M17.5714 5.875H14.3571L14.1054 5.36368C14.052 5.25436 13.9699 5.16241 13.8681 5.09816C13.7664 5.03391 13.6491 4.99992 13.5295 5H10.4679C10.3485 4.99954 10.2314 5.0334 10.13 5.09772C10.0287 5.16204 9.94708 5.25421 9.89464 5.36368L9.64286 5.875H6.42857C6.31491 5.875 6.2059 5.9211 6.12553 6.00315C6.04515 6.08519 6 6.19647 6 6.3125V7.1875C6 7.30354 6.04515 7.41482 6.12553 7.49686C6.2059 7.57891 6.31491 7.625 6.42857 7.625H17.5714C17.6851 7.625 17.7941 7.57891 17.8745 7.49686C17.9548 7.41482 18 7.30354 18 7.1875V6.3125C18 6.19647 17.9548 6.08519 17.8745 6.00315C17.7941 5.9211 17.6851 5.875 17.5714 5.875ZM7.425 17.7695C7.44544 18.1027 7.58951 18.4155 7.82787 18.6441C8.06624 18.8727 8.38098 19 8.70804 19H15.292C15.619 19 15.9338 18.8727 16.1721 18.6441C16.4105 18.4155 16.5546 18.1027 16.575 17.7695L17.1429 8.5H6.85714L7.425 17.7695Z" fill="#111827"/>
</svg>
