<svg width="24" height="24" viewBox="0 0 24 24" fill="none" xmlns="http://www.w3.org/2000/svg">
<circle cx="12" cy="12" r="12" fill="white"/>
<path fill-rule="evenodd" clip-rule="evenodd" d="M17.5526 8.96395C18.2307 8.28591 18.2307 7.18658 17.5526 6.50853C16.8746 5.83049 15.7753 5.83049 15.0972 6.50853L11.9967 9.60902L8.96397 6.57628C8.28592 5.89823 7.18659 5.89823 6.50855 6.57628C5.8305 7.25432 5.8305 8.35365 6.50855 9.03169L9.60227 12.1254L6.50853 15.2192C5.83049 15.8972 5.83049 16.9965 6.50853 17.6746C7.18658 18.3526 8.28591 18.3526 8.96395 17.6746L12.0644 14.5741L15.0972 17.6068C15.7752 18.2849 16.8746 18.2849 17.5526 17.6068C18.2307 16.9288 18.2307 15.8295 17.5526 15.1514L14.4589 12.0577L17.5526 8.96395Z" fill="#E3B261"/>
</svg>
